<svg width="256" height="256" viewBox="0 0 256 256" fill="none" xmlns="http://www.w3.org/2000/svg">
<g clip-path="url(#clip0_293_3589)">
<rect width="256" height="256" rx="32" fill="#55429E"/>
<path d="M252.3 239.654C215.849 329.268 42.3139 329.053 4.57471 239.975C-14.7749 194.303 -1.08173 163.571 16.1454 113.49C46.7168 40.6974 92.4094 106.22 128.264 106.174C160.355 106.132 202.937 39.6451 238.446 113.202C255.746 160.263 271.017 193.637 252.3 239.654Z" fill="#9074F9"/>
<circle cx="176.242" cy="177.101" r="35.9167" transform="rotate(-0.0741533 176.242 177.101)" fill="#FFFFFE"/>
<circle cx="79.2674" cy="177.227" r="35.9167" transform="rotate(-0.0741533 79.2674 177.227)" fill="#FFFFFE"/>
<circle cx="82.891" cy="176.847" r="26.5422" transform="rotate(-0.0741533 82.891 176.847)" fill="#55429E"/>
<circle cx="171.817" cy="177.862" r="26.5422" transform="rotate(-0.0741533 171.817 177.862)" fill="#55429E"/>
<path d="M110.685 230.219C121.011 241.162 135.191 241.144 144.2 230.175" stroke="#55429E" stroke-width="12.8907" stroke-linecap="round"/>
<path d="M81.8529 31.2394C85.8189 29.0192 90.8338 30.4345 93.0539 34.4005L107.613 60.4086C109.833 64.3746 108.418 69.3895 104.452 71.6096C100.486 73.8298 95.4713 72.4145 93.2511 68.4485L78.6918 42.4404C76.4717 38.4744 77.8869 33.4595 81.8529 31.2394Z" fill="#F6B859"/>
<path d="M123.544 18.4134C128.061 17.9061 132.133 21.1563 132.641 25.6731L135.968 55.2928C136.475 59.8095 133.225 63.8823 128.708 64.3896C124.192 64.897 120.119 61.6467 119.611 57.13L116.284 27.5103C115.777 22.9936 119.027 18.9208 123.544 18.4134Z" fill="#F6B859"/>
<path d="M167.858 25.5536C172.082 27.2311 174.146 32.0154 172.469 36.2396L161.468 63.9412C159.791 68.1654 155.006 70.2299 150.782 68.5524C146.558 66.8749 144.493 62.0906 146.171 57.8664L157.172 30.1648C158.849 25.9406 163.633 23.876 167.858 25.5536Z" fill="#F6B859"/>
</g>
<defs>
<clipPath id="clip0_293_3589">
<rect width="256" height="256" rx="32" fill="white"/>
</clipPath>
</defs>
</svg>
