<svg preserveAspectRatio="none" width="100%" height="100%" overflow="visible" style="display: block;" viewBox="0 0 48 48" fill="none" xmlns="http://www.w3.org/2000/svg">
<g id="Overlay">
<rect width="48" height="48" rx="24" fill="var(--fill-0, #CDE3FE)"/>
<path id="Icon" d="M23.9998 39C21.6498 38.7 19.5498 38.1 17.6998 37.2C15.8498 36.3 14.281 35.125 12.9935 33.675C11.706 32.225 10.7248 30.5438 10.0498 28.6313C9.37478 26.7188 9.03728 24.6 9.03728 22.275C11.7873 22.55 14.1123 23.05 16.0123 23.775C17.9123 24.5 19.456 25.525 20.6435 26.85C21.831 28.175 22.6873 29.8313 23.2123 31.8188C23.7373 33.8063 23.9998 36.2 23.9998 39V39M23.9998 26.3625C23.4248 25.4875 22.6435 24.625 21.656 23.775C20.6685 22.925 19.5248 22.15 18.2248 21.45C18.3748 20.4 18.6248 19.3125 18.9748 18.1875C19.3248 17.0625 19.7498 15.9563 20.2498 14.8688C20.7498 13.7813 21.3185 12.7375 21.956 11.7375C22.5935 10.7375 23.2748 9.825 23.9998 9C24.7248 9.825 25.406 10.7375 26.0435 11.7375C26.681 12.7375 27.2498 13.7813 27.7498 14.8688C28.2498 15.9563 28.6748 17.0625 29.0248 18.1875C29.3748 19.3125 29.6248 20.4 29.7748 21.45C28.4748 22.125 27.331 22.8875 26.3435 23.7375C25.356 24.5875 24.5748 25.4625 23.9998 26.3625V26.3625M26.9998 38.4C26.9498 36.65 26.8185 35.0313 26.606 33.5438C26.3935 32.0563 26.0623 30.65 25.6123 29.325C26.7873 27.3 28.406 25.65 30.4685 24.375C32.531 23.1 35.3623 22.4 38.9623 22.275C38.9873 26.225 37.931 29.6312 35.7935 32.4937C33.656 35.3562 30.7248 37.325 26.9998 38.4V38.4" fill="var(--fill-0, #5FA6FC)"/>
</g>
</svg>
