<svg preserveAspectRatio="none" width="100%" height="100%" overflow="visible" style="display: block;" viewBox="0 0 48 48" fill="none" xmlns="http://www.w3.org/2000/svg">
<g id="Overlay">
<rect width="48" height="48" rx="24" fill="var(--fill-0, #FFC7A8)"/>
<path id="Icon" d="M27 20.85V18.3C27.825 17.95 28.6687 17.6875 29.5312 17.5125C30.3938 17.3375 31.3 17.25 32.25 17.25C32.9 17.25 33.5375 17.3 34.1625 17.4C34.7875 17.5 35.4 17.625 36 17.775V20.175C35.4 19.95 34.7937 19.7812 34.1812 19.6687C33.5687 19.5562 32.925 19.5 32.25 19.5C31.3 19.5 30.3875 19.6187 29.5125 19.8562C28.6375 20.0937 27.8 20.425 27 20.85V20.85M27 29.1V26.55C27.825 26.2 28.6687 25.9375 29.5312 25.7625C30.3938 25.5875 31.3 25.5 32.25 25.5C32.9 25.5 33.5375 25.55 34.1625 25.65C34.7875 25.75 35.4 25.875 36 26.025V28.425C35.4 28.2 34.7937 28.0312 34.1812 27.9187C33.5687 27.8062 32.925 27.75 32.25 27.75C31.3 27.75 30.3875 27.8625 29.5125 28.0875C28.6375 28.3125 27.8 28.65 27 29.1V29.1M27 24.975V22.425C27.825 22.075 28.6687 21.8125 29.5312 21.6375C30.3938 21.4625 31.3 21.375 32.25 21.375C32.9 21.375 33.5375 21.425 34.1625 21.525C34.7875 21.625 35.4 21.75 36 21.9V24.3C35.4 24.075 34.7937 23.9062 34.1812 23.7937C33.5687 23.6812 32.925 23.625 32.25 23.625C31.3 23.625 30.3875 23.7437 29.5125 23.9812C28.6375 24.2187 27.8 24.55 27 24.975V24.975M25.5 31.575C26.6 31.05 27.7063 30.6562 28.8188 30.3937C29.9313 30.1312 31.075 30 32.25 30C33.15 30 34.0312 30.075 34.8937 30.225C35.7562 30.375 36.625 30.6 37.5 30.9V30.9V30.9V16.05V16.05V16.05C36.675 15.7 35.8187 15.4375 34.9312 15.2625C34.0437 15.0875 33.15 15 32.25 15C31.075 15 29.9125 15.15 28.7625 15.45C27.6125 15.75 26.525 16.2 25.5 16.8V31.575V31.575M24 36C22.8 35.05 21.5 34.3125 20.1 33.7875C18.7 33.2625 17.25 33 15.75 33C14.7 33 13.6688 33.1375 12.6562 33.4125C11.6437 33.6875 10.675 34.075 9.75 34.575C9.225 34.85 8.71875 34.8375 8.23125 34.5375C7.74375 34.2375 7.5 33.8 7.5 33.225V15.15C7.5 14.875 7.56875 14.6125 7.70625 14.3625C7.84375 14.1125 8.05 13.925 8.325 13.8C9.5 13.225 10.7062 12.7812 11.9437 12.4688C13.1812 12.1562 14.45 12 15.75 12C17.2 12 18.6188 12.1875 20.0063 12.5625C21.3938 12.9375 22.725 13.5 24 14.25C25.275 13.5 26.6062 12.9375 27.9937 12.5625C29.3812 12.1875 30.8 12 32.25 12C33.55 12 34.8187 12.1562 36.0562 12.4688C37.2937 12.7812 38.5 13.225 39.675 13.8C39.95 13.925 40.1563 14.1125 40.2938 14.3625C40.4313 14.6125 40.5 14.875 40.5 15.15V33.225C40.5 33.8 40.2562 34.2375 39.7687 34.5375C39.2812 34.8375 38.775 34.85 38.25 34.575C37.325 34.075 36.3563 33.6875 35.3438 33.4125C34.3312 33.1375 33.3 33 32.25 33C30.75 33 29.3 33.2625 27.9 33.7875C26.5 34.3125 25.2 35.05 24 36V36" fill="var(--fill-0, #E2804B)"/>
</g>
</svg>
