<svg xmlns="http://www.w3.org/2000/svg" width="115" height="105" viewBox="0 0 115 105" fill="none">
<path d="M96.0022 80.0852C74.7891 107.701 14.306 91.2121 9.60208 56.7644C7.19027 39.1024 14.881 29.7446 25.6402 14.0141C43.2073 -8.32694 52.9197 18.7078 65.4249 22.0832C76.6175 25.1042 97.7736 6.08498 103.173 34.9414C104.738 52.891 106.895 65.9044 96.0022 80.0852Z" fill="#8174E0"/>
<ellipse cx="12.9751" cy="12.9083" rx="12.9751" ry="12.9083" transform="matrix(0.965449 0.260591 -0.26281 0.964848 66.2873 35.3721)" fill="#FFFFFE"/>
<ellipse cx="12.9751" cy="12.9083" rx="12.9751" ry="12.9083" transform="matrix(0.965449 0.260591 -0.26281 0.964848 32.4645 26.2429)" fill="#FFFFFE"/>
<ellipse cx="9.58854" cy="9.53916" rx="9.58854" ry="9.53916" transform="matrix(0.965449 0.260591 -0.26281 0.964848 36.1476 30.5871)" fill="#433877"/>
<ellipse cx="9.58854" cy="9.53916" rx="9.58854" ry="9.53916" transform="matrix(0.965449 0.260591 -0.26281 0.964848 67.0558 39.3502)" fill="#433877"/>
<path d="M46.9543 65.4988C49.5161 70.2691 54.4616 71.604 58.6437 68.654" stroke="#433877" stroke-width="9.88689" stroke-linecap="round"/>
</svg>