<svg xmlns="http://www.w3.org/2000/svg" width="276" height="117" viewBox="0 0 276 117" fill="none">
<path d="M202.099 83.276C185.679 127.557 102.027 127.015 82.6924 82.8131C72.7791 60.1497 78.985 44.9668 86.6461 20.2121C100.448 -15.7549 123.314 16.8038 140.597 16.8708C156.065 16.9308 175.737 -15.8839 193.798 20.6275C202.741 43.9733 210.53 60.5373 202.099 83.276Z" fill="#9CC8FD"/>
<ellipse cx="17.3437" cy="17.7783" rx="17.3437" ry="17.7783" transform="matrix(1.00011 0.00467501 0.0279014 0.999723 146.681 34.1111)" fill="#FFFFFE"/>
<ellipse cx="17.3437" cy="17.7783" rx="17.3437" ry="17.7783" transform="matrix(1.00011 0.00467502 0.0279014 0.999723 100.214 34.1111)" fill="#FFFFFE"/>
<ellipse cx="12.8169" cy="13.138" rx="12.8169" ry="13.138" transform="matrix(1.00011 0.00467501 0.0279014 0.999723 106.603 38.584)" fill="#022C5F"/>
<ellipse cx="12.8169" cy="13.138" rx="12.8169" ry="13.138" transform="matrix(1.00011 0.00467501 0.0279014 0.999723 149.226 39.1476)" fill="#022C5F"/>
<path d="M133.74 91.416C138.839 96.8034 145.653 96.8264 149.846 91.4703" stroke="#022C5F" stroke-width="9.88689" stroke-linecap="round"/>
<g clip-path="url(#clip0_536_4028)">
<path d="M48.4649 73.4385L63.0892 76.1084L64.5892 73.5103L58.112 65.7292L51.2508 60.6132L36.4614 53.2292L31.2114 62.3225L48.4649 73.4385Z" fill="#9CC8FD" stroke="#9CC8FD"/>
<path d="M64.7844 77.4634C65.2647 77.3347 65.6743 77.0204 65.9229 76.5898C66.1716 76.1591 66.2389 75.6473 66.1102 75.167C63.4363 65.1878 49.4388 57.9636 40.4623 54.2737C40.5401 52.076 40.1014 49.8907 39.1815 47.8933C38.2616 45.896 36.886 44.1422 35.1654 42.7728C33.4447 41.4035 31.4269 40.4567 29.274 40.0086C27.121 39.5606 24.893 39.6237 22.7689 40.1928C15.778 42.066 11.4572 38.4825 11.2559 38.3108C10.9529 38.0477 10.5735 37.8887 10.1734 37.8573C9.77326 37.8259 9.37363 37.9236 9.03325 38.1363C8.69286 38.3489 8.42967 38.6651 8.28238 39.0384C8.1351 39.4118 8.11149 39.8225 8.21503 40.2102L12.8252 57.4158C13.3944 59.5399 14.4538 61.501 15.9183 63.1414C17.3828 64.7818 19.2116 66.056 21.2578 66.8614C23.304 67.6669 25.5106 67.9812 27.7004 67.7792C29.8901 67.5772 32.002 66.8645 33.8663 65.6983C41.5508 71.6295 54.8052 80.1373 64.7844 77.4634ZM39.7965 58.0553C41.0095 58.5618 42.1606 59.0694 43.2498 59.5783C42.5043 61.7379 41.3516 63.7346 39.854 65.46C38.8698 64.7693 37.8546 64.0262 36.8084 63.2308C38.1606 61.7374 39.1792 59.9731 39.7965 58.0553ZM42.9934 67.5596C44.5564 65.6753 45.7891 63.5401 46.6395 61.2445C56.3845 66.3445 60.2088 71.1359 61.7259 74.1628C58.3474 74.3766 52.2827 73.449 42.9934 67.5596Z" fill="#022C5F"/>
</g>
<path d="M161.968 68.3544C152.97 63.832 145.098 66.9352 142.003 68.5681C138.909 66.9352 131.038 63.8277 122.039 68.3501C110.423 74.1891 106.07 85.2436 93.0001 71.4791C93.0001 71.4791 99.9451 104.855 122.14 88.4787C134.883 79.0747 149.117 79.0747 161.86 88.4787C184.052 104.85 191 71.4791 191 71.4791C177.934 85.2473 173.578 74.1935 161.965 68.3544L161.968 68.3544Z" fill="#022C5F"/>
<g clip-path="url(#clip1_536_4028)">
<path d="M235.438 54.465L224.108 64.0894L221.51 62.5894L223.229 52.6121L226.613 44.7509L235.729 30.9615L244.822 36.2115L235.438 54.465Z" fill="#9CC8FD" stroke="#9CC8FD"/>
<path d="M223.318 66.1104C222.837 66.2391 222.326 66.1717 221.895 65.9231C221.464 65.6744 221.15 65.2649 221.021 64.7845C218.347 54.8053 226.858 41.5503 232.787 33.8665C231.62 32.0021 230.908 29.8903 230.706 27.7005C230.504 25.5108 230.818 23.3042 231.623 21.2579C232.429 19.2117 233.703 17.3829 235.343 15.9184C236.984 14.4539 238.945 13.3945 241.069 12.8254C248.06 10.9522 250.01 5.68838 250.099 5.43901C250.229 5.05961 250.479 4.73221 250.809 4.50495C251.14 4.27768 251.535 4.16256 251.936 4.17649C252.337 4.19043 252.723 4.33269 253.038 4.58236C253.352 4.83203 253.578 5.17594 253.682 5.5635L258.292 22.7691C258.861 24.8932 258.924 27.1212 258.476 29.2741C258.028 31.427 257.081 33.4448 255.712 35.1655C254.343 36.8862 252.589 38.2617 250.591 39.1816C248.594 40.1016 246.409 40.5402 244.211 40.4624C240.522 49.4412 233.297 63.4364 223.318 66.1104ZM235.254 36.8086C234.457 37.8537 233.714 38.8688 233.025 39.8541C234.75 41.3517 236.747 42.5044 238.906 43.2499C239.413 42.1597 239.921 41.0086 240.429 39.7966C238.512 39.1793 236.747 38.1607 235.254 36.8086ZM237.237 46.6379C234.942 45.7876 232.807 44.5548 230.922 42.9919C225.033 52.2812 224.117 58.3428 224.316 61.7228C227.349 60.2186 232.137 56.3829 237.237 46.6379Z" fill="#022C5F"/>
</g>
<defs>
<clipPath id="clip0_536_4028">
<rect width="60" height="60" fill="white" transform="translate(57.9556 23) rotate(75)"/>
</clipPath>
<clipPath id="clip1_536_4028">
<rect width="60" height="60" fill="white" transform="matrix(0.258819 0.965926 0.965926 -0.258819 202 15.5293)"/>
</clipPath>
</defs>
</svg>