<svg xmlns="http://www.w3.org/2000/svg" width="266" height="208" viewBox="0 0 266 208" fill="none">
<path d="M184.099 174.276C167.679 218.557 84.0273 218.015 64.6924 173.813C54.779 151.15 60.985 135.967 68.646 111.212C82.4478 75.2451 105.314 107.804 122.597 107.871C138.065 107.931 157.737 75.1161 175.797 111.627C184.741 134.973 192.53 151.537 184.099 174.276Z" fill="#04CF9E"/>
<path d="M115.74 171.416C120.839 176.803 127.653 176.826 131.846 171.47" stroke="#025F32" stroke-width="9.88689" stroke-linecap="round"/>
<path d="M81.0039 139.023C89.0787 144.42 99.9842 144.457 106.78 139.11" stroke="#025F32" stroke-width="9.88689" stroke-linecap="round"/>
<path d="M140.004 139.023C148.079 144.42 158.984 144.457 165.78 139.11" stroke="#025F32" stroke-width="9.88689" stroke-linecap="round"/>
<path d="M8.21172 10.1236L22.5867 5.81106C22.8013 5.74663 23.028 5.73328 23.2487 5.77205C23.4694 5.81083 23.678 5.90066 23.8578 6.03438C24.0376 6.1681 24.1837 6.34201 24.2843 6.54221C24.385 6.74242 24.4374 6.96338 24.4375 7.18746V26.6404C25.9097 25.3237 27.7892 24.5521 29.7619 24.4546C31.7346 24.3572 33.681 24.9397 35.2758 26.1049C36.8706 27.2702 38.0172 28.9475 38.5238 30.8565C39.0305 32.7655 38.8667 34.7906 38.0596 36.5933C37.2526 38.396 35.8513 39.8671 34.0899 40.7608C32.3285 41.6545 30.3138 41.9165 28.3824 41.5031C26.451 41.0897 24.72 40.026 23.4787 38.4897C22.2374 36.9534 21.561 35.0376 21.5625 33.0625V17.7441L9.03828 21.5014C8.82366 21.5658 8.59695 21.5791 8.37625 21.5404C8.15555 21.5016 7.94697 21.4118 7.76716 21.278C7.58736 21.1443 7.4413 20.9704 7.34065 20.7702C7.24001 20.57 7.18756 20.349 7.1875 20.125V11.5C7.18758 11.1909 7.28726 10.8901 7.47175 10.6422C7.65624 10.3943 7.91572 10.2124 8.21172 10.1236Z" fill="#025F32"/>
<path d="M215.999 113.738V147.521C215.999 151.361 213.763 155.044 209.781 157.759C205.799 160.475 200.399 162 194.769 162H192.5C190.378 162 185.956 160.475 185.388 157.759C184.819 155.044 184.5 151.361 184.5 147.521V123.391C184.5 119.551 185.343 115.868 186.843 113.153C188.343 110.438 190.378 108.912 192.5 108.912H201.536C199.836 95.7734 191.002 83.5414 176.765 74.6136C162.528 65.6859 143.915 60.7061 124.575 60.6504H124C104.578 60.6497 85.8576 65.6 71.5135 74.5294C57.1694 83.4587 48.2379 95.7222 46.4723 108.912H54C55.9891 108.912 57.8968 110.438 59.3033 113.153C60.7098 115.868 61.5 119.551 61.5 123.391V147.521C61.5 151.361 60.7098 155.044 59.3033 157.759C57.8968 160.475 55.9891 162 54 162H53.2307C47.6 162 42.1999 160.475 38.2183 157.759C34.2368 155.044 32 151.361 32 147.521V113.738C32.0198 101.31 37.4459 89.1656 47.5913 78.8416C57.7368 68.5175 72.1455 60.4782 88.9937 55.7412C105.842 51.0042 124.372 49.7825 142.239 52.2307C160.106 54.6789 176.506 60.6869 189.364 69.4943C197.853 75.3117 204.575 82.2142 209.146 89.8064C213.716 97.3986 216.045 105.531 215.999 113.738Z" fill="#025F32"/>
<path d="M257.788 44.1236L243.413 39.8111C243.199 39.7466 242.972 39.7333 242.751 39.7721C242.531 39.8108 242.322 39.9007 242.142 40.0344C241.962 40.1681 241.816 40.342 241.716 40.5422C241.615 40.7424 241.563 40.9634 241.563 41.1875V60.6404C240.09 59.3237 238.211 58.5521 236.238 58.4546C234.265 58.3572 232.319 58.9397 230.724 60.1049C229.129 61.2702 227.983 62.9475 227.476 64.8565C226.969 66.7655 227.133 68.7906 227.94 70.5933C228.747 72.396 230.149 73.8671 231.91 74.7608C233.671 75.6545 235.686 75.9165 237.618 75.5031C239.549 75.0897 241.28 74.026 242.521 72.4897C243.763 70.9534 244.439 69.0376 244.438 67.0625V51.7441L256.962 55.5014C257.176 55.5658 257.403 55.5791 257.624 55.5404C257.844 55.5016 258.053 55.4118 258.233 55.278C258.413 55.1443 258.559 54.9704 258.659 54.7702C258.76 54.57 258.812 54.349 258.813 54.125V45.5C258.812 45.1909 258.713 44.8901 258.528 44.6422C258.344 44.3943 258.084 44.2124 257.788 44.1236Z" fill="#025F32"/>
</svg>