<svg xmlns="http://www.w3.org/2000/svg" width="262" height="148" viewBox="0 0 262 148" fill="none">
<path d="M190.856 114.276C174.437 158.557 90.785 158.015 71.4501 113.813C61.5367 91.1497 67.7427 75.9668 75.4037 51.2121C89.2055 15.2451 112.072 47.8038 129.354 47.8708C144.822 47.9308 164.495 15.1161 182.555 51.6275C191.498 74.9733 199.288 91.5373 190.856 114.276Z" fill="#8174E0"/>
<ellipse cx="17.3437" cy="17.7783" rx="17.3437" ry="17.7783" transform="matrix(1.00011 0.00467501 0.0279014 0.999723 135.439 65.1112)" fill="#FFFFFE"/>
<ellipse cx="17.3437" cy="17.7783" rx="17.3437" ry="17.7783" transform="matrix(1.00011 0.00467502 0.0279014 0.999723 88.9717 65.1112)" fill="#FFFFFE"/>
<ellipse cx="12.8169" cy="13.138" rx="12.8169" ry="13.138" transform="matrix(1.00011 0.00467501 0.0279014 0.999723 95.3604 69.5841)" fill="#022C5F"/>
<ellipse cx="12.8169" cy="13.138" rx="12.8169" ry="13.138" transform="matrix(1.00011 0.00467501 0.0279014 0.999723 137.983 70.1476)" fill="#022C5F"/>
<path d="M122.498 109.416C127.597 114.804 134.411 114.827 138.604 109.471" stroke="#022C5F" stroke-width="9.88689" stroke-linecap="round"/>
<g clip-path="url(#clip0_536_4310)">
<path d="M208.5 49.5L215 20.5L242.5 25.5L230.5 56L208.5 49.5Z" fill="#8174E0"/>
<path d="M248.424 36.9781C247.81 35.8574 247.173 34.7017 247.057 33.8044C246.947 32.9816 247.258 31.7497 247.558 30.5563C248.116 28.3376 248.751 25.8241 247.477 23.6167C246.202 21.4092 243.708 20.7021 241.508 20.0761C240.324 19.7395 239.102 19.3926 238.444 18.8864C237.727 18.3376 237.042 17.2078 236.379 16.1153C235.219 14.1958 233.9 12.0201 231.536 11.3868C229.173 10.7535 226.945 11.9787 224.978 13.0605C223.857 13.675 222.702 14.3116 221.804 14.4278C220.986 14.5386 219.75 14.2267 218.556 13.9263C216.338 13.3682 213.824 12.7335 211.617 14.008C209.409 15.2824 208.713 17.7796 208.076 19.9771C207.74 21.1607 207.393 22.3829 206.886 23.0407C206.338 23.7575 205.208 24.4423 204.115 25.1056C202.196 26.2655 200.02 27.5848 199.387 29.9483C198.753 32.3118 199.979 34.54 201.06 36.5065C201.675 37.6272 202.312 38.7829 202.428 39.6803C202.537 40.5031 202.227 41.735 201.926 42.9284C201.368 45.147 200.734 47.6606 202.008 49.868C203.282 52.0754 205.777 52.7825 207.977 53.4085C209.161 53.7451 210.383 54.092 211.041 54.5983C211.758 55.147 212.442 56.2768 213.106 57.3693C214.266 59.2888 215.585 61.4646 217.948 62.0979C220.312 62.7312 222.54 61.506 224.507 60.4242C225.627 59.8097 226.783 59.1731 227.68 59.0568C228.503 58.9473 229.735 59.258 230.928 59.5583C233.147 60.1164 235.661 60.7511 237.868 59.4767C240.075 58.2022 240.783 55.708 241.409 53.5076C241.745 52.3239 242.092 51.1017 242.598 50.4439C243.147 49.7272 244.277 49.0423 245.369 48.3791C247.289 47.2192 249.465 45.8998 250.098 43.5363C250.731 41.1728 249.506 38.9446 248.424 36.9781ZM220.86 51.2312C220.323 51.0872 219.84 50.7872 219.473 50.369C219.107 49.9507 218.872 49.4332 218.8 48.8816C218.727 48.3301 218.819 47.7695 219.066 47.2706C219.312 46.7717 219.7 46.357 220.182 46.0789C220.663 45.8007 221.217 45.6717 221.772 45.7081C222.327 45.7444 222.859 45.9446 223.3 46.2832C223.741 46.6219 224.072 47.0838 224.251 47.6105C224.43 48.1372 224.449 48.7052 224.305 49.2425C224.112 49.963 223.64 50.5773 222.994 50.9502C222.348 51.3232 221.581 51.4243 220.86 51.2312ZM225.627 40.6868L225.583 40.8498C225.454 41.3302 225.14 41.7397 224.709 41.9883C224.279 42.237 223.767 42.3044 223.286 42.1757C222.806 42.047 222.397 41.7327 222.148 41.302C221.899 40.8714 221.832 40.3596 221.961 39.8793L222.446 38.0682C222.575 37.5878 222.889 37.1783 223.32 36.9296C223.75 36.681 224.262 36.6136 224.742 36.7423C227.737 37.5449 230.722 36.1607 231.389 33.6704C232.056 31.1801 230.164 28.4893 227.169 27.6868C224.174 26.8842 221.189 28.2684 220.522 30.7587L220.28 31.6642C220.151 32.1446 219.837 32.5541 219.406 32.8028C218.975 33.0514 218.464 33.1188 217.983 32.9901C217.503 32.8614 217.093 32.5471 216.845 32.1165C216.596 31.6858 216.529 31.174 216.657 30.6937L216.9 29.7881C218.104 25.2943 223.145 22.7264 228.139 24.0645C233.133 25.4027 236.215 30.1472 235.011 34.641C233.957 38.5756 229.959 41.0349 225.627 40.6868Z" fill="#433877"/>
</g>
<path d="M27.0341 61.248L54.302 93.7513L38.8102 104.44L12.993 72.566L14.0837 60.1137L27.0341 61.248Z" fill="#8174E0" stroke="#8174E0"/>
<path d="M54.5732 97.2887L43.2273 106.809C42.85 107.126 42.414 107.365 41.9443 107.513C41.4746 107.661 40.9802 107.715 40.4896 107.672C39.9989 107.629 39.5216 107.49 39.0847 107.263C38.6479 107.035 38.2601 106.724 37.9436 106.346L11.6751 75.0318C11.3569 74.6557 11.1167 74.22 10.9685 73.7502C10.8202 73.2804 10.7668 72.7858 10.8113 72.2952L11.7253 61.861C11.8121 60.8702 12.2889 59.9545 13.0508 59.3153C13.8127 58.676 14.7974 58.3657 15.7882 58.4525L26.2224 59.3664C26.7133 59.4078 27.1911 59.5464 27.628 59.7741C28.0648 60.0018 28.4521 60.3141 28.7672 60.6927L55.036 92.0051C55.3526 92.3824 55.5917 92.8183 55.7398 93.2881C55.8879 93.7578 55.942 94.2521 55.899 94.7428C55.8561 95.2334 55.7168 95.7108 55.4894 96.1476C55.2619 96.5845 54.9505 96.9722 54.5732 97.2887ZM15.2522 73.463L34.4994 96.4057L38.7352 92.85L19.4901 69.9098L15.2522 73.463ZM14.8742 68.8867L22.1595 62.7749L15.461 62.1882L14.8742 68.8867ZM26.6004 63.9426L22.3622 67.4981L41.6095 90.4408L45.8453 86.8852L26.6004 63.9426Z" fill="#433877"/>
<defs>
<clipPath id="clip0_536_4310">
<rect width="60" height="60" fill="white" transform="translate(203.529) rotate(15)"/>
</clipPath>
</defs>
</svg>