<svg xmlns="http://www.w3.org/2000/svg" width="216" height="107" viewBox="0 0 216 107" fill="none">
<g>
<path d="M207 69.4106C207 76.038 201.627 81.4106 195 81.4106L13 81.4106C6.37259 81.4106 1 76.038 1 69.4106L1 37.4106C1 30.7832 6.37259 25.4106 13 25.4106L195 25.4106C201.627 25.4106 207 30.7832 207 37.4106L207 69.4106Z" fill="#F0F1FD"/>
<path d="M207 69.4106C207 76.5903 201.18 82.4106 194 82.4106L13 82.4106C5.8203 82.4106 2.25387e-06 76.5903 2.2373e-06 69.4106L2 69.4106C2 75.4857 6.92487 80.4106 13 80.4106L195 80.4106C201.627 80.4106 207 75.4857 207 69.4106ZM2.16342e-06 37.4106C2.14684e-06 30.2309 5.8203 24.4106 13 24.4106L194 24.4106C201.18 24.4106 207 30.2309 207 37.4106C207 31.3355 201.627 26.4106 195 26.4106L13 26.4106C6.92487 26.4106 2 31.3354 2 37.4106L2.16342e-06 37.4106ZM2 37.4106M207 25.4106L207 81.4106L207 25.4106M13 82.4106C5.8203 82.4106 2.25387e-06 76.5903 2.2373e-06 69.4106L2.16342e-06 37.4106C2.14684e-06 30.2309 5.8203 24.4106 13 24.4106L13 26.4106C6.92487 26.4106 2 31.3354 2 37.4106L2 69.4106C2 75.4857 6.92487 80.4106 13 80.4106L13 82.4106Z" fill="#8174E0"/>
<path d="M35.0341 59.4106L31.75 47.7743L34.017 47.7743L36.1136 56.3254L36.2216 56.3254L38.4602 47.7743L40.5227 47.7743L42.767 56.3311L42.8693 56.3311L44.9659 47.7742L47.2329 47.7742L43.9488 59.4106L41.8693 59.4106L39.5397 51.2458L39.4488 51.2458L37.1136 59.4106L35.0341 59.4106ZM51.1605 54.297L51.1605 59.4106L49.1037 59.4106L49.1037 47.7742L51.115 47.7742L51.115 52.1663L51.2173 52.1663C51.4219 51.6739 51.7381 51.2856 52.1662 51.0015C52.598 50.7136 53.1472 50.5697 53.8139 50.5697C54.42 50.5697 54.9484 50.6966 55.3991 50.9504C55.8499 51.2042 56.1984 51.5754 56.4446 52.064C56.6946 52.5527 56.8196 53.1493 56.8196 53.8538L56.8196 59.4106L54.7628 59.4106L54.7628 54.172C54.7628 53.5849 54.6112 53.1284 54.3082 52.8027C54.009 52.4731 53.5885 52.3083 53.0469 52.3083C52.6832 52.3083 52.3575 52.3879 52.0696 52.547C51.7855 52.7023 51.562 52.9277 51.3991 53.2231C51.24 53.5186 51.1605 53.8765 51.1605 54.297ZM61.9275 59.5868C61.3745 59.5868 60.8764 59.4883 60.4332 59.2913C59.9938 59.0905 59.6453 58.7951 59.3878 58.4049C59.134 58.0148 59.0071 57.5337 59.0071 56.9618C59.0071 56.4693 59.098 56.0621 59.2798 55.7402C59.4616 55.4182 59.7097 55.1606 60.0241 54.9674C60.3385 54.7743 60.6927 54.6284 61.0866 54.5299C61.4844 54.4277 61.8953 54.3538 62.3196 54.3083C62.8309 54.2553 63.2457 54.208 63.5639 54.1663C63.8821 54.1208 64.1131 54.0527 64.2571 53.9618C64.4048 53.8671 64.4787 53.7212 64.4787 53.5243L64.4787 53.4902C64.4787 53.0621 64.3518 52.7307 64.098 52.4958C63.8442 52.261 63.4787 52.1436 63.0014 52.1436C62.4976 52.1436 62.098 52.2534 61.8025 52.4731C61.5109 52.6928 61.3139 52.9523 61.2116 53.2515L59.2912 52.9788C59.4427 52.4485 59.6927 52.0053 60.0412 51.6493C60.3897 51.2894 60.8158 51.0205 61.3196 50.8424C61.8234 50.6606 62.3802 50.5697 62.99 50.5697C63.4105 50.5697 63.8291 50.6189 64.2457 50.7174C64.6624 50.8159 65.0431 50.9788 65.3878 51.2061C65.7325 51.4296 66.009 51.7345 66.2173 52.1208C66.4294 52.5072 66.5355 52.9902 66.5355 53.5697L66.5355 59.4106L64.5582 59.4106L64.5582 58.2118L64.49 58.2118C64.365 58.4542 64.1889 58.6814 63.9616 58.8936C63.7381 59.1019 63.4559 59.2705 63.115 59.3993C62.7779 59.5243 62.3821 59.5868 61.9275 59.5868ZM62.4616 58.0754C62.8745 58.0754 63.2325 57.9939 63.5355 57.8311C63.8385 57.6644 64.0715 57.4447 64.2344 57.172C64.401 56.8993 64.4844 56.6019 64.4844 56.2799L64.4844 55.2515C64.42 55.3046 64.3101 55.3538 64.1548 55.3993C64.0033 55.4447 63.8328 55.4845 63.6434 55.5186C63.4541 55.5527 63.2666 55.583 63.0809 55.6095C62.8953 55.636 62.7344 55.6587 62.598 55.6777C62.2912 55.7193 62.0166 55.7875 61.7741 55.8822C61.5317 55.9769 61.3404 56.1095 61.2003 56.2799C61.0601 56.4466 60.99 56.6625 60.99 56.9277C60.99 57.3064 61.1283 57.5924 61.4048 57.7856C61.6813 57.9788 62.0336 58.0754 62.4616 58.0754ZM73.4616 50.6833L73.4616 52.2742L68.4446 52.2742L68.4446 50.6833L73.4616 50.6833ZM69.6832 48.5924L71.74 48.5924L71.74 56.7856C71.74 57.0621 71.7817 57.2743 71.865 57.422C71.9522 57.5659 72.0658 57.6644 72.2059 57.7174C72.3461 57.7705 72.5014 57.797 72.6719 57.797C72.8006 57.797 72.9181 57.7875 73.0241 57.7686C73.134 57.7496 73.2173 57.7326 73.2741 57.7174L73.6207 59.3254C73.5109 59.3633 73.3537 59.4049 73.1491 59.4504C72.9484 59.4958 72.7022 59.5224 72.4105 59.5299C71.8953 59.5451 71.4313 59.4674 71.0184 59.297C70.6056 59.1227 70.2779 58.8538 70.0355 58.4902C69.7969 58.1265 69.6794 57.672 69.6832 57.1265L69.6832 48.5924ZM77.8324 47.7742L77.8324 48.9333C77.8324 49.2667 77.768 49.6133 77.6392 49.9731C77.5142 50.3292 77.3418 50.6701 77.1221 50.9958C76.9024 51.3178 76.6524 51.5943 76.3721 51.8254L75.4176 51.2061C75.6259 50.8917 75.8077 50.5527 75.9631 50.189C76.1184 49.8216 76.196 49.4068 76.196 48.9447L76.196 47.7742L77.8324 47.7742ZM85.767 52.9902L83.892 53.1947C83.839 53.0053 83.7462 52.8273 83.6136 52.6606C83.4848 52.4939 83.3106 52.3595 83.0909 52.2572C82.8712 52.1549 82.6023 52.1038 82.2841 52.1038C81.856 52.1038 81.4962 52.1966 81.2045 52.3822C80.9167 52.5678 80.7746 52.8083 80.7784 53.1038C80.7746 53.3576 80.8674 53.564 81.0568 53.7231C81.25 53.8822 81.5682 54.0129 82.0114 54.1152L83.5 54.4333C84.3257 54.6114 84.9394 54.8936 85.3409 55.2799C85.7462 55.6663 85.9507 56.172 85.9545 56.797C85.9507 57.3462 85.7898 57.8311 85.4716 58.2515C85.1572 58.6682 84.7197 58.9939 84.1591 59.2288C83.5985 59.4636 82.9545 59.5811 82.2273 59.5811C81.1591 59.5811 80.2992 59.3576 79.6477 58.9106C78.9962 58.4599 78.6079 57.833 78.4829 57.0299L80.4886 56.8368C80.5795 57.2307 80.7727 57.528 81.0682 57.7288C81.3636 57.9296 81.7481 58.0299 82.2216 58.0299C82.7102 58.0299 83.1023 57.9296 83.3977 57.7288C83.697 57.528 83.8466 57.2799 83.8466 56.9845C83.8466 56.7345 83.75 56.528 83.5568 56.3652C83.3674 56.2023 83.072 56.0773 82.6704 55.9902L81.1818 55.6777C80.3447 55.5034 79.7254 55.2099 79.3238 54.797C78.9223 54.3803 78.7235 53.8538 78.7273 53.2174C78.7235 52.6796 78.8693 52.2136 79.1648 51.8197C79.464 51.422 79.8788 51.1152 80.4091 50.8992C80.9432 50.6796 81.5587 50.5697 82.2557 50.5697C83.2784 50.5697 84.0833 50.7875 84.6704 51.2231C85.2614 51.6587 85.6269 52.2477 85.767 52.9902ZM93.8977 62.6833C93.6174 62.6833 93.3579 62.6606 93.1193 62.6152C92.8845 62.5735 92.697 62.5243 92.5568 62.4674L93.0341 60.8652C93.3333 60.9523 93.6004 60.9939 93.8352 60.9902C94.0701 60.9864 94.2765 60.9125 94.4545 60.7686C94.6364 60.6284 94.7898 60.3936 94.9148 60.064L95.0909 59.5924L91.9261 50.6833L94.1079 50.6833L96.1193 57.2742L96.2102 57.2742L98.2273 50.6833L100.415 50.6833L96.9204 60.4674C96.7576 60.9296 96.5417 61.3254 96.2727 61.6549C96.0038 61.9883 95.6742 62.2421 95.2841 62.4163C94.8977 62.5943 94.4356 62.6833 93.8977 62.6833ZM105.848 59.5811C104.996 59.5811 104.257 59.3936 103.632 59.0186C103.007 58.6436 102.522 58.1189 102.178 57.4447C101.837 56.7705 101.666 55.9826 101.666 55.0811C101.666 54.1796 101.837 53.3898 102.178 52.7117C102.522 52.0337 103.007 51.5072 103.632 51.1322C104.257 50.7572 104.996 50.5697 105.848 50.5697C106.7 50.5697 107.439 50.7572 108.064 51.1322C108.689 51.5072 109.172 52.0337 109.513 52.7117C109.857 53.3898 110.03 54.1795 110.03 55.0811C110.03 55.9826 109.857 56.7705 109.513 57.4447C109.172 58.1189 108.689 58.6436 108.064 59.0186C107.439 59.3936 106.7 59.5811 105.848 59.5811ZM105.859 57.9333C106.321 57.9333 106.708 57.8064 107.018 57.5527C107.329 57.2951 107.56 56.9504 107.712 56.5186C107.867 56.0867 107.945 55.6057 107.945 55.0754C107.945 54.5413 107.867 54.0583 107.712 53.6265C107.56 53.1909 107.329 52.8443 107.018 52.5867C106.708 52.3292 106.321 52.2004 105.859 52.2004C105.386 52.2004 104.992 52.3292 104.678 52.5867C104.367 52.8443 104.134 53.1909 103.979 53.6265C103.827 54.0583 103.751 54.5413 103.751 55.0754C103.751 55.6057 103.827 56.0867 103.979 56.5186C104.134 56.9504 104.367 57.2951 104.678 57.5527C104.992 57.8064 105.386 57.9333 105.859 57.9333ZM117.838 55.7402L117.838 50.6833L119.895 50.6833L119.895 59.4106L117.901 59.4106L117.901 57.8595L117.81 57.8595C117.613 58.3481 117.289 58.7477 116.838 59.0583C116.391 59.3689 115.84 59.5242 115.185 59.5242C114.613 59.5242 114.107 59.3974 113.668 59.1436C113.232 58.886 112.891 58.5129 112.645 58.0242C112.399 57.5318 112.276 56.9371 112.276 56.2402L112.276 50.6833L114.332 50.6833L114.332 55.922C114.332 56.475 114.484 56.9144 114.787 57.2402C115.09 57.5659 115.488 57.7288 115.98 57.7288C116.283 57.7288 116.577 57.6549 116.861 57.5072C117.145 57.3595 117.378 57.1398 117.56 56.8481C117.745 56.5527 117.838 56.1833 117.838 55.7402ZM122.51 59.4106L122.51 50.6833L124.504 50.6833L124.504 52.1379L124.595 52.1379C124.754 51.6341 125.027 51.2458 125.413 50.9731C125.804 50.6966 126.249 50.5583 126.749 50.5583C126.862 50.5583 126.989 50.564 127.129 50.5754C127.273 50.583 127.393 50.5962 127.487 50.6152L127.487 52.5072C127.4 52.4769 127.262 52.4504 127.072 52.4277C126.887 52.4011 126.707 52.3879 126.533 52.3879C126.158 52.3879 125.821 52.4693 125.521 52.6322C125.226 52.7913 124.993 53.0129 124.822 53.297C124.652 53.5811 124.567 53.9087 124.567 54.2799L124.567 59.4106L122.51 59.4106ZM137.618 62.8652C136.879 62.8652 136.245 62.7648 135.714 62.564C135.184 62.3671 134.758 62.1019 134.436 61.7686C134.114 61.4352 133.891 61.0659 133.766 60.6606L135.618 60.2117C135.701 60.3822 135.822 60.5508 135.982 60.7174C136.141 60.8879 136.355 61.028 136.624 61.1379C136.896 61.2515 137.239 61.3083 137.652 61.3083C138.235 61.3083 138.718 61.1663 139.101 60.8822C139.483 60.6019 139.675 60.1398 139.675 59.4958L139.675 57.8424L139.572 57.8424C139.466 58.0545 139.311 58.2724 139.107 58.4958C138.906 58.7193 138.639 58.9068 138.305 59.0583C137.976 59.2099 137.561 59.2856 137.061 59.2856C136.391 59.2856 135.783 59.1284 135.237 58.814C134.696 58.4958 134.264 58.0224 133.942 57.3936C133.624 56.761 133.464 55.9693 133.464 55.0186C133.464 54.0602 133.624 53.2515 133.942 52.5924C134.264 51.9295 134.697 51.4277 135.243 51.0867C135.788 50.742 136.396 50.5697 137.067 50.5697C137.578 50.5697 137.999 50.6568 138.328 50.8311C138.661 51.0015 138.927 51.208 139.124 51.4504C139.321 51.689 139.47 51.9144 139.572 52.1265L139.686 52.1265L139.686 50.6833L141.714 50.6833L141.714 59.5527C141.714 60.2989 141.536 60.9163 141.18 61.4049C140.824 61.8936 140.338 62.2591 139.72 62.5015C139.103 62.7439 138.402 62.8652 137.618 62.8652ZM137.635 57.672C138.071 57.672 138.442 57.5659 138.749 57.3538C139.055 57.1417 139.288 56.8367 139.447 56.439C139.607 56.0413 139.686 55.564 139.686 55.0072C139.686 54.458 139.607 53.9769 139.447 53.564C139.292 53.1511 139.061 52.8311 138.754 52.6038C138.451 52.3727 138.078 52.2572 137.635 52.2572C137.177 52.2572 136.794 52.3765 136.487 52.6152C136.18 52.8538 135.949 53.1814 135.794 53.5981C135.639 54.011 135.561 54.4807 135.561 55.0072C135.561 55.5413 135.639 56.0091 135.794 56.4106C135.953 56.8083 136.186 57.1189 136.493 57.3424C136.804 57.5621 137.184 57.672 137.635 57.672ZM148.129 59.5811C147.277 59.5811 146.538 59.3936 145.913 59.0186C145.288 58.6436 144.804 58.1189 144.459 57.4447C144.118 56.7705 143.947 55.9826 143.947 55.0811C143.947 54.1795 144.118 53.3898 144.459 52.7117C144.804 52.0337 145.288 51.5072 145.913 51.1322C146.538 50.7572 147.277 50.5697 148.129 50.5697C148.982 50.5697 149.72 50.7572 150.345 51.1322C150.97 51.5072 151.453 52.0337 151.794 52.7117C152.139 53.3898 152.311 54.1795 152.311 55.0811C152.311 55.9826 152.139 56.7705 151.794 57.4447C151.453 58.1189 150.97 58.6436 150.345 59.0186C149.72 59.3936 148.982 59.5811 148.129 59.5811ZM148.141 57.9333C148.603 57.9333 148.989 57.8064 149.3 57.5527C149.61 57.2951 149.841 56.9504 149.993 56.5186C150.148 56.0867 150.226 55.6057 150.226 55.0754C150.226 54.5413 150.148 54.0583 149.993 53.6265C149.841 53.1909 149.61 52.8443 149.3 52.5867C148.989 52.3292 148.603 52.2004 148.141 52.2004C147.667 52.2004 147.273 52.3292 146.959 52.5867C146.648 52.8443 146.415 53.1909 146.26 53.6265C146.108 54.0583 146.033 54.5413 146.033 55.0754C146.033 55.6057 146.108 56.0867 146.26 56.5186C146.415 56.9504 146.648 57.2951 146.959 57.5527C147.273 57.8064 147.667 57.9333 148.141 57.9333ZM157.068 59.5867C156.515 59.5867 156.017 59.4883 155.574 59.2913C155.134 59.0905 154.786 58.7951 154.528 58.4049C154.275 58.0148 154.148 57.5337 154.148 56.9617C154.148 56.4693 154.239 56.0621 154.42 55.7402C154.602 55.4182 154.85 55.1606 155.165 54.9674C155.479 54.7742 155.833 54.6284 156.227 54.5299C156.625 54.4277 157.036 54.3538 157.46 54.3083C157.972 54.2553 158.386 54.208 158.705 54.1663C159.023 54.1208 159.254 54.0527 159.398 53.9617C159.545 53.867 159.619 53.7212 159.619 53.5242L159.619 53.4902C159.619 53.0621 159.492 52.7307 159.239 52.4958C158.985 52.261 158.619 52.1436 158.142 52.1436C157.638 52.1436 157.239 52.2534 156.943 52.4731C156.652 52.6928 156.455 52.9523 156.352 53.2515L154.432 52.9788C154.583 52.4485 154.833 52.0053 155.182 51.6492C155.53 51.2894 155.956 51.0205 156.46 50.8424C156.964 50.6606 157.521 50.5697 158.131 50.5697C158.551 50.5697 158.97 50.6189 159.386 50.7174C159.803 50.8159 160.184 50.9788 160.528 51.2061C160.873 51.4295 161.15 51.7345 161.358 52.1208C161.57 52.5072 161.676 52.9902 161.676 53.5697L161.676 59.4106L159.699 59.4106L159.699 58.2117L159.631 58.2117C159.506 58.4542 159.33 58.6814 159.102 58.8936C158.879 59.1019 158.597 59.2705 158.256 59.3992C157.919 59.5242 157.523 59.5867 157.068 59.5867ZM157.602 58.0754C158.015 58.0754 158.373 57.9939 158.676 57.8311C158.979 57.6644 159.212 57.4447 159.375 57.172C159.542 56.8992 159.625 56.6019 159.625 56.2799L159.625 55.2515C159.561 55.3045 159.451 55.3538 159.295 55.3992C159.144 55.4447 158.974 55.4845 158.784 55.5186C158.595 55.5527 158.407 55.583 158.222 55.6095C158.036 55.636 157.875 55.6587 157.739 55.6777C157.432 55.7193 157.157 55.7875 156.915 55.8822C156.672 55.9769 156.481 56.1095 156.341 56.2799C156.201 56.4466 156.131 56.6625 156.131 56.9277C156.131 57.3064 156.269 57.5924 156.545 57.7856C156.822 57.9788 157.174 58.0754 157.602 58.0754ZM166.301 47.7742L166.301 59.4106L164.244 59.4106L164.244 47.7742L166.301 47.7742ZM170.882 55.9902L170.882 55.8424C170.886 55.1568 170.95 54.6114 171.075 54.2061C171.204 53.8008 171.386 53.475 171.621 53.2288C171.856 52.9788 172.142 52.7496 172.479 52.5413C172.71 52.3973 172.916 52.2401 173.098 52.0697C173.284 51.8955 173.429 51.7023 173.536 51.4901C173.642 51.2742 173.695 51.0337 173.695 50.7686C173.695 50.4693 173.625 50.2098 173.484 49.9901C173.344 49.7705 173.155 49.6 172.916 49.4788C172.681 49.3576 172.418 49.297 172.126 49.297C171.858 49.297 171.602 49.3557 171.359 49.4731C171.121 49.5867 170.922 49.761 170.763 49.9958C170.608 50.2269 170.52 50.5205 170.501 50.8765L168.479 50.8765C168.498 50.1568 168.672 49.5545 169.001 49.0697C169.335 48.5848 169.774 48.2212 170.32 47.9788C170.869 47.7364 171.475 47.6151 172.138 47.6151C172.861 47.6151 173.498 47.742 174.047 47.9958C174.6 48.2496 175.03 48.6114 175.337 49.0811C175.647 49.547 175.803 50.1 175.803 50.7401C175.803 51.172 175.733 51.5583 175.592 51.8992C175.456 52.2401 175.261 52.5432 175.007 52.8083C174.753 53.0735 174.452 53.3102 174.104 53.5186C173.797 53.708 173.545 53.9049 173.348 54.1095C173.155 54.314 173.011 54.5545 172.916 54.8311C172.825 55.1038 172.778 55.4409 172.774 55.8424L172.774 55.9902L170.882 55.9902ZM171.871 59.5356C171.53 59.5356 171.236 59.4144 170.99 59.172C170.744 58.9295 170.621 58.6341 170.621 58.2856C170.621 57.9447 170.744 57.653 170.99 57.4106C171.236 57.1682 171.53 57.047 171.871 57.047C172.208 57.047 172.5 57.1682 172.746 57.4106C172.996 57.653 173.121 57.9447 173.121 58.2856C173.121 58.5167 173.062 58.7269 172.945 58.9163C172.831 59.1057 172.679 59.2572 172.49 59.3708C172.304 59.4807 172.098 59.5356 171.871 59.5356Z" fill="#282145"/>
<path fill-rule="evenodd" clip-rule="evenodd" d="M201.622 44.263C205.34 47.2565 208.796 50.7368 211.762 54.4761C213.396 56.5349 213.422 59.4773 211.782 61.5383C208.746 65.352 205.275 68.798 201.44 71.8067C199.367 73.4327 196.425 73.3852 194.378 71.7371C190.66 68.7437 187.204 65.2634 184.238 61.524C182.604 59.4653 182.578 56.5229 184.218 54.4619C187.254 50.6482 190.725 47.2021 194.56 44.1935C196.633 42.5675 199.575 42.6149 201.622 44.263Z" fill="#F0F1FD"/>
</g>
<defs>









</defs>
</svg>